<svg width="400" height="400" viewBox="0 0 400 400" fill="none" xmlns="http://www.w3.org/2000/svg">
<rect width="400" height="400" rx="10" fill="white"/>
<g clip-path="url(#clip0_16_2)">
<path d="M100 100H175V175H100V100ZM300 100V175H225V100H300ZM225 237.5H250V212.5H225V187.5H250V212.5H275V187.5H300V212.5H275V237.5H300V275H275V300H250V275H212.5V300H187.5V250H225V237.5ZM250 237.5V275H275V237.5H250ZM100 300V225H175V300H100ZM125 125V150H150V125H125ZM250 125V150H275V125H250ZM125 250V275H150V250H125ZM100 187.5H125V212.5H100V187.5ZM162.5 187.5H212.5V237.5H187.5V212.5H162.5V187.5ZM187.5 125H212.5V175H187.5V125ZM75 75V125H50V75C50 68.3696 52.6339 62.0107 57.3223 57.3223C62.0107 52.6339 68.3696 50 75 50H125V75H75ZM325 50C331.63 50 337.989 52.6339 342.678 57.3223C347.366 62.0107 350 68.3696 350 75V125H325V75H275V50H325ZM75 275V325H125V350H75C68.3696 350 62.0107 347.366 57.3223 342.678C52.6339 337.989 50 331.63 50 325V275H75ZM325 325V275H350V325C350 331.63 347.366 337.989 342.678 342.678C337.989 347.366 331.63 350 325 350H275V325H325Z" fill="black"/>
</g>
<defs>
<clipPath id="clip0_16_2">
<rect width="300" height="300" fill="white" transform="translate(50 50)"/>
</clipPath>
</defs>
</svg>
